PathFileType	4	(X/Y/Z)	C:/Users/beibeiliu/ov580/test_trc/User3\sequence.30_training_dense_right.trc
DataRate	CameraRate	NumFrames	NumMarkers	Units	OrigDataRate	OrigDataStartFrame	OrigNumFrames
120	120	20	19	mm	120	1	99
Frame#	Time	ThumbCMC			ThumbMCP			ThumbIP			ThumbTip			IndexMCP			IndexPIP			IndexTip			MiddleMCP			MiddlePIP			MiddleTip			RingMCP			RingPIP			RingTip			PinkyMCP			PinkyPIP			PinkyTip			BackHand1			BackHand2			BackHand3	
		X0	Y0	Z0	X1	Y1	Z1	X2	Y2	Z2	X3	Y3	Z3	X4	Y4	Z4	X5	Y5	Z5	X6	Y6	Z6	X7	Y7	Z7	X8	Y8	Z8	X9	Y9	Z9	X10	Y10	Z10	X11	Y11	Z11	X12	Y12	Z12	X13	Y13	Z13	X14	Y14	Z14	X15	Y15	Z15	X16	Y16	Z16	X17	Y17	Z17	X18	Y18	Z18	
0	0	64.6997	-28.355	19.2451	42.4028	-56.1542	7.52183	30.226	-79.8561	-8.26233	22.4622	-97.2584	-18.7714	60.4177	-47.4413	-55.2277	45.0442	-68.7392	-69.9246	31.8958	-82.4489	-80.3831	83.4102	-59.5476	-61.4815	67.6121	-77.3629	-76.7411	55.5415	-102.203	-92.5515	98.8681	-70.0887	-51.814	90.3389	-89.6763	-66.6953	83.3726	-112.652	-79.7637	116.077	-79.0296	-36.2549	112.323	-99.2104	-45.6391	109.592	-118.311	-53.6886	118.142	-31.7108	-15.0166	125.582	-17.1482	12.5899	92.5834	-9.94662	-0.634013	
1	0.00833333	70.6134	-13.6545	13.716	47.027	-32.1047	6.78122	25.7542	-51.7757	-11.0167	8.93277	-62.3453	-16.8504	65.27	-37.7412	-53.7721	43.7422	-50.9904	-69.4081	28.3031	-67.5983	-80.0262	78.368	-53.9515	-56.7327	55.9101	-70.5663	-73.963	36.9004	-88.6722	-87.5426	87.4787	-70.3955	-48.071	78.8147	-89.0141	-57.5628	58.3538	-105.215	-71.3533	100.447	-83.1115	-27.9319	87.5997	-102.295	-37.5746	71.6759	-116.431	-45.1891	121.074	-40.5581	-10.7988	132.566	-28.1505	15.6898	106.366	-8.85982	-4.39803	
2	0.0166667	85.7539	1.40197	14.6612	55.3131	-12.8589	1.59963	28.8269	-21.1923	-13.9617	12.2175	-28.9747	-22.8732	72.5341	-30.0017	-54.8118	50.8925	-33.0645	-68.8932	30.8325	-44.9058	-79.2732	74.183	-51.185	-58.1076	51.3904	-57.4539	-72.1537	24.9668	-69.2185	-85.0968	80.904	-69.3027	-42.5389	63.3834	-77.9413	-53.9792	39.5947	-90.203	-64.7253	84.4282	-82.5739	-23.1304	66.6943	-94.5163	-27.4228	48.2621	-102.745	-34.5217	120.308	-50.0327	-8.02539	135.404	-42.7875	16.8846	121.431	-14.7439	-3.48911	
3	0.025	99.1297	5.773	9.28918	67.7334	5.73122	-0.700842	40.1211	0.987279	-19.7789	20.4762	1.50554	-28.5975	79.8308	-22.3255	-55.2231	53.4953	-21.3448	-71.9321	33.2453	-26.3955	-81.307	73.1565	-49.3226	-54.2301	47.3698	-48.4843	-70.8982	20.8396	-48.9351	-82.741	70.5217	-62.275	-41.6907	48.4103	-67.7957	-53.3392	24.8243	-68.407	-63.161	68.7248	-74.4866	-17.2473	49.159	-78.755	-21.8327	22.9394	-82.2612	-29.859	115.268	-54.2387	-5.98997	129.081	-50.3386	23.5611	125.905	-21.0794	-6.42132	
4	0.0333333	112.679	3.28281	3.76123	83.1247	10.7265	-7.18832	57.9667	16.0056	-26.6609	38.721	20.1383	-38.2817	83.6362	-24.2627	-59.4165	66.8618	-15.2232	-75.4314	44.063	-13.0146	-86.1639	75.7314	-43.08	-54.1309	48.9547	-36.7994	-73.5839	27.1571	-30.347	-88.5385	66.1345	-54.4612	-36.7724	42.0591	-51.9788	-54.8011	18.8924	-49.3999	-66.91	56.6342	-64.08	-11.8704	32.4517	-61.75	-22.6204	10.6259	-57.5599	-28.8839	107.098	-59.2166	0.267715	119.858	-61.1616	27.3862	127.902	-36.4627	-0.285632	
5	0.0416667	122.567	-4.32057	0.0835397	97.5194	8.1041	-13.669	78.9379	19.0273	-32.1222	62.5456	26.5934	-47.4788	96.4592	-26.8953	-63.1759	77.1995	-19.1545	-81.5469	63.9591	-6.83348	-101.055	77.8215	-45.7039	-56.1088	58.5035	-37.1622	-76.7524	41.5058	-24.9578	-97.0499	65.0473	-50.4878	-43.3956	45.5241	-47.8605	-57.1648	28.9861	-37.7778	-73.4789	49.0886	-55.2107	-16.7637	34.3396	-49.194	-26.78	8.92332	-42.9196	-37.042	96.5454	-64.2739	0.776895	110.969	-62.7032	26.005	126.011	-46.4755	-2.74162	
6	0.05	131.671	-15.2109	0.367937	115.095	3.1004	-20.6046	98.7121	14.3857	-46.084	85.8871	22.9703	-60.2483	110.264	-39.745	-65.6693	100.485	-28.8095	-90.2251	84.3373	-22.0215	-107.148	90.9035	-53.4977	-62.0771	75.8662	-44.669	-84.6165	60.0142	-33.8253	-108.698	71.1832	-57.688	-47.0329	56.5846	-52.2061	-64.9216	42.1148	-43.5996	-83.4617	58.7442	-55.5888	-23.3932	38.0891	-47.9974	-35.98	20.0413	-40.1196	-51.315	102.289	-68.7457	1.37039	111.89	-66.1801	28.1325	131.622	-54.8183	-0.976101	
7	0.0583333	144.101	-23.5333	4.81564	128.677	-9.31144	-23.0431	115.833	-0.721655	-49.669	105.161	6.1216	-69.2896	128.859	-54.1657	-65.7818	117.259	-45.9827	-91.2215	108.74	-39.565	-113.719	104.048	-67.3135	-62.9775	94.1269	-60.2863	-88.3288	78.5863	-52.9132	-116.719	84.5042	-69.2301	-49.554	72.1767	-65.8992	-69.9883	64.6674	-59.0422	-91.352	70.9794	-66.349	-26.3048	56.5325	-60.3205	-42.0875	37.293	-54.823	-59.4633	110.104	-79.2453	-1.18331	117.254	-74.2848	32.459	143.318	-64.2076	5.14557	
8	0.0666667	155.219	-37.5477	5.02	146.067	-22.2715	-21.6255	135.202	-17.6157	-47.8291	126.92	-10.9605	-68.8891	146.851	-69.8564	-61.5121	142.708	-64.6846	-86.8195	134.992	-61.6053	-106.822	124.396	-83.668	-58.2821	115.544	-78.1501	-87.9065	109.055	-73.341	-111.424	108.455	-83.8295	-45.1677	97.9454	-81.4189	-67.8594	86.2512	-77.7544	-94.5937	86.6352	-80.1408	-27.7663	75.6466	-74.1147	-46.875	58.4519	-69.852	-60.6115	121.111	-91.408	5.7349	125.12	-84.5729	34.5952	153.691	-74.9193	12.8399	
9	0.075	177.803	-46.1409	13.2656	167.33	-34.9339	-19.2031	160.671	-31.2295	-46.6487	154.321	-27.6042	-69.8148	170.851	-87.1829	-54.202	172.802	-81.3909	-77.5743	165.164	-79.3842	-104.492	152.147	-98.1721	-56.1476	144.264	-95.01	-83.2672	140.926	-92.781	-108.563	131.407	-97.889	-41.5947	125.329	-96.2089	-65.5292	117.299	-93.6625	-91.6811	106.534	-92.5937	-26.1661	98.4167	-88.2338	-46.0039	87.9239	-85.4575	-65.3912	143.71	-97.3545	11.5256	140.811	-92.7657	38.0403	170.865	-87.489	21.3807	
10	0.0833333	193.598	-55.6393	15.6175	188.395	-43.8667	-18.5999	183.549	-39.1981	-47.0467	177.479	-38.9552	-69.0997	200.724	-96.9126	-43.8147	201.794	-93.3309	-75.1105	194.892	-93.6414	-96.0719	177.621	-109.373	-49.481	173.502	-109.26	-74.5417	171.8	-106.65	-104.524	156.406	-110.05	-41.8724	153.102	-109.899	-63.5765	148.445	-108.05	-89.5087	130.706	-103.68	-25.8299	125.298	-101.271	-46.5607	114.772	-99.1627	-70.1588	164.408	-105.444	17.434	160.496	-99.0212	45.5737	190.182	-91.2906	26.9983	
11	0.0916667	205.708	-45.68	18.9574	197.083	-42.9746	-14.9627	195.151	-39.9664	-49.7033	191.221	-38.3619	-72.4709	228.469	-87.7286	-43.5395	227.969	-86.9686	-71.4065	225.169	-84.9263	-96.5584	211.398	-104.971	-44.2653	208.759	-107.153	-74.8185	210.019	-104.1	-104.148	189.321	-111.929	-40.5261	185.994	-113.162	-63.4519	184.576	-110.868	-92.2117	165.329	-110.602	-31.5912	155.383	-110.886	-52.0038	146.342	-110.226	-71.8794	188.951	-107.804	13.6101	182.343	-97.9802	43.572	214.79	-83.8578	24.9991	
12	0.1	204.545	-26.7162	14.6127	194.765	-28.2	-19.1559	190.01	-27.7576	-48.2004	186.706	-29.5816	-71.4037	243.611	-56.9726	-47.811	241.159	-56.3484	-72.8971	240.66	-52.8366	-94.0967	235.978	-80.421	-50.9777	231.784	-83.7817	-79.3052	230.796	-81.0213	-106.748	218.514	-94.0055	-44.047	215.408	-98.5517	-69.2749	215.922	-94.7953	-94.4321	194.295	-105.436	-34.1433	189.418	-105.377	-54.1584	183.249	-107.566	-76.0008	216.295	-90.9455	13.3464	203.148	-85.3214	39.9315	227.55	-59.687	27.1841	
13	0.108333	185.431	-15.8637	8.78338	173.893	-17.0007	-24.6362	171.8	-21.5094	-53.3019	166.122	-23.5926	-74.0708	229.886	-20.3174	-50.1135	228.251	-18.3036	-77.519	226.275	-16.1589	-104.338	237.181	-45.3395	-51.6418	236.305	-44.754	-80.4251	233.072	-44.3838	-114.38	229.851	-64.4041	-50.1995	229.037	-61.2603	-71.772	227.353	-65.9539	-95.6488	216.258	-84.5861	-35.5421	211.797	-87.0016	-60.4203	209.54	-88.4412	-78.3811	225.327	-59.7363	10.7496	215.022	-62.571	34.5059	220.259	-26.9673	22.1927	
14	0.116667	156.711	-9.41708	4.45415	143.037	-13.6231	-27.0238	143.864	-19.3381	-56.767	141.451	-22.9881	-82.2831	196.853	9.23381	-59.3291	193.566	7.59166	-85.6995	189.238	9.8786	-107.604	212.302	-8.32373	-60.0917	213.118	-11.606	-86.2073	208.364	-10.5054	-119.471	218.487	-33.4433	-55.096	217.74	-32.8105	-81.7754	214.876	-34.1356	-107.122	216.053	-55.7448	-41.8659	216.704	-63.4078	-62.7602	214.21	-66.1837	-88.1432	216.233	-33.8183	2.63444	206.743	-36.6459	30.2932	195.024	-5.86023	12.1344	
15	0.125	126.014	-10.226	1.90528	114.974	-20.247	-27.5758	110.609	-25.2965	-56.9592	110.218	-31.5185	-78.81	152.499	17.0365	-64.2217	145.828	15.1851	-91.2817	141.024	14.6607	-113.285	174.977	5.18524	-69.4168	170.441	5.32309	-97.0517	166.741	4.28346	-124.227	186.013	-11.6881	-63.0741	190.233	-16.5338	-84.4255	186.718	-18.5905	-112.515	198.047	-37.2361	-49.0602	199.616	-44.5333	-69.1564	200.58	-48.6765	-92.1228	193.047	-14.4755	-3.66808	189.958	-20.5936	21.5581	162.241	3.21139	9.29151	
16	0.133333	104.369	-19.5121	2.11897	88.4529	-32.2617	-27.0973	86.8419	-40.5983	-57.1036	82.5286	-49.7788	-77.8164	114.247	6.1645	-70.8443	104.699	1.70414	-94.0505	102.467	-3.96585	-119.26	138.75	0.981128	-73.3532	133.028	-3.61882	-100.34	131.678	-9.1134	-128.927	155.283	-13.2683	-65.3975	154.835	-17.2022	-93.5743	152.266	-19.8154	-119.206	174.241	-34.2875	-52.4612	174.331	-42.5986	-76.8665	178.161	-47.865	-97.6381	164.784	-7.16281	-11.2333	166.941	-12.2156	17.5137	134.674	2.67463	3.55804	
17	0.141667	86.0013	-26.1784	0.382182	76.4437	-45.3623	-26.6853	66.2878	-58.401	-49.6652	63.4337	-68.5733	-68.6045	93.2893	-9.70701	-74.5557	83.538	-17.8656	-96.6172	77.0984	-26.1096	-117.03	118.002	-13.1228	-80.6889	111.086	-19.9305	-107.094	102.636	-24.88	-133.123	133.638	-21.2788	-72.6086	135.259	-28.5999	-99.0457	129.199	-31.7567	-119.926	155.204	-39.2936	-59.9572	158.618	-50.2157	-79.2184	166.681	-56.1288	-96.0614	147.672	-9.94259	-17.7484	150.61	-11.0506	13.3628	113.535	-0.477527	-1.56091	
18	0.15	76.1344	-35.937	6.09948	67.4968	-58.9214	-21.8134	57.8975	-76.1069	-42.0436	54.1058	-89.2919	-61.9196	78.6413	-24.1384	-70.8402	71.02	-34.7446	-92.553	65.4036	-47.4758	-117.185	103.354	-24.8517	-81.5515	100.916	-33.9747	-102.838	94.7473	-43.7458	-133.554	128.575	-33.5585	-70.2348	124.261	-38.8315	-94.0268	119.421	-46.5882	-120.468	147.291	-47.3622	-55.9425	150.195	-58.9208	-78.7231	157.154	-66.5357	-93.1118	133.355	-15.7435	-21.4355	137.873	-16.0716	8.81455	106.341	-7.9292	-4.56871	
19	0.158333	73.5724	-46.5829	5.98033	67.4336	-71.813	-16.5962	59.4236	-90.8561	-33.5591	53.7532	-108.006	-51.5413	74.8298	-41.0881	-66.3891	64.2548	-54.0541	-89.3711	55.9929	-66.4162	-108.005	102.851	-42.6462	-79.9559	94.957	-53.5336	-102.46	87.0058	-64.4517	-130.226	121.904	-48.4335	-72.5896	116.687	-55.6005	-93.5502	114.16	-66.8014	-119.314	141.951	-58.5584	-52.7309	147.395	-70.4025	-72.3726	150.353	-78.2309	-94.8359	128.233	-25.3225	-23.465	135.79	-21.4553	5.32843	102.384	-17.3673	-3.06592	
